<svg width="10" height="10" viewBox="0 0 10 10" fill="none" xmlns="http://www.w3.org/2000/svg">
<g clip-path="url(#clip0_148_11653)">
<path d="M7.69449 9.37505C7.62872 9.37531 7.56454 9.3548 7.51109 9.31646L4.99918 7.49537L2.48727 9.31646C2.4336 9.35538 2.36895 9.37623 2.30265 9.37599C2.23636 9.37575 2.17186 9.35443 2.11848 9.31512C2.06509 9.27581 2.0256 9.22053 2.0057 9.1573C1.9858 9.09406 1.98652 9.02613 2.00777 8.96333L2.98746 6.06158L0.448398 4.32037C0.3934 4.28269 0.351891 4.22842 0.329935 4.16547C0.307979 4.10253 0.306728 4.03421 0.326363 3.97051C0.345999 3.9068 0.385492 3.85104 0.439074 3.81138C0.492655 3.77172 0.557515 3.75023 0.624179 3.75005H3.7566L4.70191 0.840874C4.72228 0.778066 4.76201 0.723322 4.81542 0.684496C4.86882 0.645669 4.93315 0.624756 4.99918 0.624756C5.06521 0.624756 5.12954 0.645669 5.18294 0.684496C5.23635 0.723322 5.27608 0.778066 5.29645 0.840874L6.24176 3.75103H9.37418C9.44093 3.751 9.50593 3.77234 9.55967 3.81192C9.61341 3.85151 9.65307 3.90726 9.67283 3.97102C9.69259 4.03477 9.69141 4.10318 9.66948 4.16622C9.64755 4.22926 9.606 4.28362 9.55094 4.32134L7.0109 6.06158L7.99 8.96255C8.00586 9.00952 8.01033 9.05959 8.00302 9.10862C7.99571 9.15765 7.97684 9.20424 7.94797 9.24454C7.9191 9.28484 7.88106 9.3177 7.83698 9.34039C7.79291 9.36308 7.74407 9.37496 7.69449 9.37505Z" fill="url(#paint0_linear_148_11653)"/>
</g>
<defs>
<linearGradient id="paint0_linear_148_11653" x1="1.45752" y1="1.25006" x2="7.70752" y2="9.58339" gradientUnits="userSpaceOnUse">
<stop stop-color="#F84119"/>
<stop offset="1" stop-color="#F89F19" stop-opacity="0.68"/>
</linearGradient>
<clipPath id="clip0_148_11653">
<rect width="10" height="10" fill="white"/>
</clipPath>
</defs>
</svg>
